<?xml version="1.0" standalone="no"?>
<!DOCTYPE svg PUBLIC "-//W3C//DTD SVG 1.1//EN" "http://www.w3.org/Graphics/SVG/1.1/DTD/svg11.dtd" >
<svg>
<metadata>
Created by FontForge 20110222 at Thu Oct  9 02:34:02 2014
 By Orthosie Webhosting
Copyrighted (c) 1981, 1997 by and the property of Linotype-Hell AG and/or its subsidiaries. All Rights Reserved. All Cyrillic characters designed by DoubleAlex. Helvetica is a registered Trademark of Linotype-Hell AG and/or its subsidiaries.
</metadata>
<defs>
<font id="HelveticaNeueCyrLight" horiz-adv-x="556" >
  <font-face 
    font-family="HelveticaNeueCyrLight"
    font-weight="300"
    font-stretch="normal"
    units-per-em="1000"
    panose-1="2 0 5 3 4 0 0 2 0 4"
    ascent="800"
    descent="-200"
    x-height="514"
    cap-height="712"
    bbox="-33 -214 1051 902"
    underline-thickness="50"
    underline-position="-50"
    unicode-range="U+0020-E001"
  />
<missing-glyph horiz-adv-x="1000" 
 />
    <glyph glyph-name=".notdef" horiz-adv-x="1000" 
 />
    <glyph glyph-name=".null" horiz-adv-x="0" 
 />
    <glyph glyph-name="nonmarkingreturn" horiz-adv-x="333" 
 />
    <glyph glyph-name="space" unicode=" " horiz-adv-x="278" 
 />
    <glyph glyph-name="exclam" unicode="!" horiz-adv-x="241" 
d="M154 712v-209l-15 -324h-37l-15 324v209h67zM158 99v-99h-75v99h75z" />
    <glyph glyph-name="quotedbl" unicode="&#x22;" horiz-adv-x="370" 
d="M131 411h-40l-7 280h54zM279 411h-39l-7 280h53z" />
    <glyph glyph-name="numbersign" unicode="#" 
d="M146 0h-54l39 211h-113l-1 48h123l32 174h-113v48h122l39 210h54l-39 -210h137l39 210h54l-39 -210h114v-48h-123l-32 -174h113l1 -48h-123l-39 -211h-54l39 211h-137zM331 259l32 174h-137l-32 -174h137z" />
    <glyph glyph-name="dollar" unicode="$" 
d="M292 782v-72q99 -1 155.5 -50t56.5 -135v-10h-61q0 72 -38.5 105.5t-112.5 37.5v-273q233 -34 233 -201q0 -90 -64 -144.5t-169 -54.5v-87h-37v87q-113 2 -172.5 58.5t-59.5 162.5v5h62v-12q0 -152 170 -163v298q-103 22 -157 62t-54 124q0 82 56.5 133t154.5 57v72h37z
M255 393v264q-70 -5 -110 -40t-40 -92q0 -110 150 -132zM292 326v-291q79 1 125 41.5t46 106.5q0 36 -13.5 61.5t-41 41t-52 23.5t-64.5 17z" />
    <glyph glyph-name="percent" unicode="%" horiz-adv-x="889" 
d="M678 728l-424 -760h-52l425 760h51zM229 708q76 0 116 -47t40 -136q0 -92 -41.5 -143t-117.5 -51q-77 0 -117.5 49t-40.5 141q0 88 42.5 137.5t118.5 49.5zM227 665q-104 0 -104 -148q0 -69 26.5 -106t76.5 -37t77.5 39t27.5 110q0 142 -104 142zM669 364q76 0 116 -47
t40 -136q0 -92 -41.5 -143t-117.5 -51q-77 0 -117.5 49t-40.5 141q0 88 42.5 137.5t118.5 49.5zM667 321q-104 0 -104 -148q0 -69 26.5 -106t76.5 -37t77.5 39t27.5 110q0 142 -104 142z" />
    <glyph glyph-name="ampersand" unicode="&#x26;" horiz-adv-x="611" 
d="M535 315q-2 -40 -14 -86.5t-29 -77.5l128 -151h-80l-81 99q-75 -113 -208 -113q-94 0 -153.5 53.5t-59.5 139.5q0 129 176 217q-26 33 -41 53.5t-30.5 54.5t-15.5 64q0 63 44.5 103t115.5 40q68 0 111.5 -40t43.5 -101q0 -60 -38 -103t-102 -84l150 -185q21 55 24 117h59
zM268 424q114 65 114 142q0 40 -28 67t-69 27q-43 0 -71 -26t-28 -65q0 -27 12.5 -51t37 -53t32.5 -41zM248 356q-77 -49 -101 -73q-46 -46 -46 -103q0 -59 45 -100.5t110 -41.5q103 0 167 103z" />
    <glyph glyph-name="quotesingle" unicode="'" horiz-adv-x="278" 
d="M159 411h-40l-7 280h54z" />
    <glyph glyph-name="parenleft" unicode="(" horiz-adv-x="241" 
d="M242 -191h-50q-72 127 -106.5 228.5t-34.5 224.5q0 115 38 242t103 214h50q-128 -204 -128 -457q0 -243 128 -452z" />
    <glyph glyph-name="parenright" unicode=")" horiz-adv-x="241" 
d="M192 262q0 -123 -34.5 -224.5t-106.5 -228.5h-50q128 209 128 452q0 253 -128 457h50q65 -87 103 -214t38 -242z" />
    <glyph glyph-name="asterisk" unicode="*" horiz-adv-x="352" 
d="M325 606l-117 -39l72 -98l-31 -24l-74 101l-73 -100l-33 24l72 97l-114 39l13 38l115 -41v122h41v-122l115 41z" />
    <glyph glyph-name="plus" unicode="+" horiz-adv-x="600" 
d="M272 0v217h-221v49h221v217h54v-217h222v-49h-222v-217h-54z" />
    <glyph glyph-name="comma" unicode="," horiz-adv-x="278" 
d="M181 103v-74q0 -66 -17 -107t-71 -60v42q44 18 45 96h-39v103h82z" />
    <glyph glyph-name="hyphen" unicode="-" horiz-adv-x="370" 
d="M311 305v-61h-251v61h251z" />
    <glyph glyph-name="period" unicode="." horiz-adv-x="278" 
d="M181 103v-103h-82v103h82z" />
    <glyph glyph-name="slash" unicode="/" horiz-adv-x="333" 
d="M350 729l-312 -746h-53l313 746h52z" />
    <glyph glyph-name="zero" unicode="0" 
d="M277 703q245 0 245 -363q0 -356 -244 -356t-244 351q0 368 243 368zM278 647q-47 0 -81.5 -21.5t-52.5 -52.5t-29 -77t-13.5 -82t-2.5 -81q0 -295 179 -295q178 0 178 304q0 305 -178 305z" />
    <glyph glyph-name="one" unicode="1" 
d="M345 698v-698h-66v520h-181v48q38 1 55 2.5t42 5.5t36.5 12t25.5 22t22 35.5t15 52.5h51z" />
    <glyph glyph-name="two" unicode="2" 
d="M497 56v-56h-461q2 28 6.5 52.5t16 46.5t20 38t29 36t30.5 30t37.5 29.5t37.5 26t43 28.5q36 24 50 33.5t44 34t43 43.5t25 47.5t12 59.5q0 65 -42.5 104.5t-112.5 39.5q-85 0 -122.5 -53t-37.5 -139h-62v9q0 111 60 174.5t165 63.5q98 0 157 -54t59 -144
q0 -29 -8.5 -56.5t-17.5 -47.5t-32 -44.5t-35.5 -37t-44.5 -35t-43 -29.5t-46 -30q-39 -25 -53.5 -35t-44 -34.5t-43.5 -48.5t-19 -53q4 0 9.5 0.5t7.5 0.5h373z" />
    <glyph glyph-name="three" unicode="3" 
d="M50 475q1 108 61 168t166 60q94 0 152 -49.5t58 -129.5q0 -57 -31.5 -98t-86.5 -54q69 -14 106 -58.5t37 -112.5q0 -97 -66.5 -157t-174.5 -60q-109 0 -173.5 60.5t-64.5 162.5v16h61v-3q0 -85 47.5 -133t131.5 -48q77 0 126 43.5t49 111.5q0 79 -51.5 113t-132.5 34
q-19 0 -34 -1v53h26q52 0 84 11q83 31 83 117q0 59 -40.5 94t-108.5 35q-76 0 -119 -45.5t-46 -129.5h-59z" />
    <glyph glyph-name="four" unicode="4" 
d="M517 226v-52h-106v-174h-58v174h-323v59l328 467h53v-474h106zM353 226v276q0 67 1 115q-110 -171 -273 -391h272z" />
    <glyph glyph-name="five" unicode="5" 
d="M474 691v-56h-303l-50 -242q55 70 159 70q100 0 164.5 -66t64.5 -169q0 -104 -68 -173.5t-173 -69.5q-104 0 -167 58.5t-65 156.5h62q4 -74 49.5 -118t120.5 -44q76 0 126.5 53t50.5 133q0 82 -50 133.5t-128 51.5q-101 0 -155 -81l-56 2l69 361h349z" />
    <glyph glyph-name="six" unicode="6" 
d="M503 522h-63q-9 60 -47.5 94.5t-99.5 34.5q-48 0 -84 -22t-55 -53t-31.5 -78.5t-16 -83t-5.5 -82.5q28 59 78.5 90.5t116.5 31.5q98 0 161 -65t63 -165q0 -104 -66 -172t-168 -68q-63 0 -114 28t-83 79q-48 78 -48 237q0 182 65.5 279.5t188.5 97.5q88 0 142.5 -47.5
t65.5 -135.5zM284 401q-73 0 -121 -50.5t-48 -127.5q0 -80 48.5 -132t122.5 -52t121.5 51t47.5 130q0 80 -47.5 130.5t-123.5 50.5z" />
    <glyph glyph-name="seven" unicode="7" 
d="M502 691v-57q-123 -130 -197 -292t-87 -342h-68q9 170 88 339t203 293h-390v59h451z" />
    <glyph glyph-name="eight" unicode="8" 
d="M180 378q-54 15 -84 54.5t-30 95.5q0 81 58 130t154 49t153.5 -48t57.5 -127q0 -118 -113 -154q66 -14 104 -60.5t38 -114.5q0 -100 -64.5 -158t-176.5 -58q-109 0 -174 57t-65 153q0 70 37 117.5t105 63.5zM278 651q-69 0 -109.5 -34t-40.5 -92q0 -57 41 -90.5
t109 -33.5q69 0 109 33.5t40 91.5q0 59 -39.5 92t-109.5 33zM276 351q-79 0 -126.5 -42t-47.5 -110q0 -72 48 -115.5t128 -43.5t127.5 43t47.5 116q0 69 -48 110.5t-129 41.5z" />
    <glyph glyph-name="nine" unicode="9" 
d="M52 167h61q9 -59 50 -93.5t102 -34.5q165 0 183 255q2 23 2 52v19q-53 -129 -192 -129q-98 0 -161 65t-63 166q0 104 66 171.5t167 67.5q127 0 193 -100q52 -80 52 -243q0 -108 -20 -183q-25 -94 -84.5 -144.5t-143.5 -50.5q-89 0 -147 49.5t-65 132.5zM265 651
q-72 0 -119.5 -51.5t-47.5 -129.5q0 -79 47 -128.5t121 -49.5q75 0 122.5 49.5t47.5 127.5q0 79 -48.5 130.5t-122.5 51.5z" />
    <glyph glyph-name="colon" unicode=":" horiz-adv-x="278" 
d="M181 103v-103h-82v103h82zM181 501v-103h-82v103h82z" />
    <glyph glyph-name="semicolon" unicode=";" horiz-adv-x="278" 
d="M181 501v-103h-82v103h82zM181 103v-74q0 -66 -17 -107t-71 -60v42q44 18 45 96h-39v103h82z" />
    <glyph glyph-name="less" unicode="&#x3c;" horiz-adv-x="600" 
d="M48 233v54l497 200v-54l-435 -173l435 -172v-53z" />
    <glyph glyph-name="equal" unicode="=" horiz-adv-x="600" 
d="M51 320v48h497v-48h-497zM51 137v48h497v-48h-497z" />
    <glyph glyph-name="greater" unicode="&#x3e;" horiz-adv-x="600" 
d="M552 233l-497 -198v53l435 172l-435 173v54l497 -200v-54z" />
    <glyph glyph-name="question" unicode="?" horiz-adv-x="537" 
d="M49 490q0 103 56.5 169.5t164.5 66.5q93 0 150.5 -51t57.5 -133q0 -34 -8 -61.5t-30.5 -56t-34 -40t-47.5 -45.5q-42 -40 -52.5 -69.5t-10.5 -93.5h-60q0 84 18 120t83 100l13 13q63 63 63 129q0 59 -39.5 96t-103.5 37q-81 0 -120 -52t-39 -129h-61zM302 100v-100h-75
v100h75z" />
    <glyph glyph-name="at" unicode="@" horiz-adv-x="800" 
d="M704 118l20 -26q-145 -105 -305 -105q-163 0 -276 98t-113 259q0 162 116.5 271t289.5 109q148 0 241 -82t93 -212q0 -105 -60.5 -182.5t-142.5 -77.5q-34 0 -55 19t-21 50q0 10 7 37q-54 -106 -147 -106q-59 0 -96 41t-37 106q0 96 59 168t138 72q50 0 82.5 -25
t40.5 -70l24 81h50l-57 -190q-23 -75 -23 -104q0 -20 13 -32t35 -12q59 0 107 69.5t48 155.5q0 115 -83 187t-217 72q-157 0 -263 -99.5t-106 -246.5q0 -145 103.5 -233t250.5 -88q151 0 284 96zM513 426q0 43 -24 69.5t-63 26.5q-57 0 -103 -63t-46 -141q0 -52 24 -82.5
t64 -30.5q44 0 79.5 40t52 89.5t16.5 91.5z" />
    <glyph glyph-name="A" unicode="A" horiz-adv-x="630" 
d="M354 714l284 -714h-75l-86 224h-326l-87 -224h-73l288 714h75zM456 279l-140 371l-144 -371h284z" />
    <glyph glyph-name="B" unicode="B" horiz-adv-x="667" 
d="M72 712h305q96 0 159.5 -44t63.5 -134q0 -57 -35.5 -101t-87.5 -56q66 -13 108.5 -55t42.5 -118q0 -99 -68.5 -151.5t-172.5 -52.5h-315v712zM138 654v-257h226q71 0 120 30t49 98q0 40 -15.5 67t-44.5 40t-58.5 17.5t-68.5 4.5h-208zM138 342v-284h213q43 0 75.5 5
t65 19.5t50.5 45t18 75.5q0 43 -18.5 72.5t-52.5 43t-67 18.5t-75 5h-209z" />
    <glyph glyph-name="C" unicode="C" horiz-adv-x="704" 
d="M671 273q-11 -132 -94.5 -210.5t-211.5 -78.5q-148 0 -237 101t-89 270q0 158 88.5 266t243.5 108q108 0 193.5 -63.5t97.5 -167.5h-68q-16 79 -77 125.5t-148 46.5q-118 0 -190.5 -86.5t-72.5 -228.5t71.5 -227.5t189.5 -85.5q103 0 164 63.5t73 167.5h67z" />
    <glyph glyph-name="D" unicode="D" horiz-adv-x="685" 
d="M71 712h258q160 0 239 -92.5t79 -250.5q0 -162 -77 -265.5t-235 -103.5h-264v712zM139 654v-596h179q261 0 261 307q0 136 -64.5 212.5t-185.5 76.5h-190z" />
    <glyph glyph-name="E" unicode="E" horiz-adv-x="593" 
d="M566 712v-58h-426v-257h399v-57h-399v-282h430v-58h-498v712h494z" />
    <glyph glyph-name="F" unicode="F" horiz-adv-x="537" 
d="M525 712v-58h-387v-256h344v-58h-344v-340h-67v712h454z" />
    <glyph glyph-name="G" unicode="G" horiz-adv-x="741" 
d="M683 362v-362h-45l-12 101l-2 32q-32 -71 -97.5 -110.5t-152.5 -39.5q-149 0 -242 101.5t-93 264.5q0 168 93.5 273t244.5 105q115 0 197 -62.5t99 -172.5h-65q-15 82 -79.5 129.5t-150.5 47.5q-124 0 -198 -87t-74 -232q0 -141 74.5 -225.5t196.5 -84.5q95 0 161.5 55.5
t80.5 147.5q4 28 4 63h-244v56h304z" />
    <glyph glyph-name="H" unicode="H" horiz-adv-x="704" 
d="M632 712v-712h-67v344h-426v-344h-68v712h68v-310h426v310h67z" />
    <glyph glyph-name="I" unicode="I" horiz-adv-x="222" 
d="M145 712v-712h-68v712h68z" />
    <glyph glyph-name="J" unicode="J" horiz-adv-x="500" 
d="M430 712v-519q0 -209 -201 -209q-108 0 -156.5 55t-48.5 163q0 14 1 28h65v-21q0 -85 28.5 -127t110.5 -42q80 0 107 44t27 127v501h67z" />
    <glyph glyph-name="K" unicode="K" horiz-adv-x="648" 
d="M643 712l-321 -291l337 -421h-87l-298 375l-136 -124v-251h-67v712h67v-383l415 383h90z" />
    <glyph glyph-name="L" unicode="L" horiz-adv-x="537" 
d="M541 58v-58h-468v712h68v-654h400z" />
    <glyph glyph-name="M" unicode="M" horiz-adv-x="833" 
d="M763 712v-712h-65v430q0 104 8 224q-21 -66 -47 -129l-210 -525h-61l-213 519q-22 53 -47 131q8 -117 8 -218v-432h-65v712h92l207 -508q10 -25 49 -134q5 13 21 60t26 72l204 510h93z" />
    <glyph glyph-name="N" unicode="N" horiz-adv-x="704" 
d="M632 712v-712h-75l-331 478q-66 96 -94 152q5 -71 5 -170v-460h-66v712h75l333 -483q56 -81 93 -149q-5 157 -5 188v444h65z" />
    <glyph glyph-name="O" unicode="O" horiz-adv-x="741" 
d="M370 729q149 0 242.5 -104t93.5 -271q0 -166 -93 -268.5t-244 -102.5q-150 0 -242 103t-92 270t92.5 270t242.5 103zM369 670q-119 0 -192.5 -86t-73.5 -226q0 -143 73 -229.5t194 -86.5t194.5 86t73.5 227t-74 228t-195 87z" />
    <glyph glyph-name="P" unicode="P" horiz-adv-x="630" 
d="M75 712h305q103 0 163.5 -51.5t60.5 -148.5q0 -102 -61 -155t-165 -53h-235v-304h-68v712zM143 654v-293h216q79 0 128 35.5t49 110.5q0 74 -45 110.5t-125 36.5h-223z" />
    <glyph glyph-name="Q" unicode="Q" horiz-adv-x="741" 
d="M701 -5l-34 -43l-112 85q-70 -55 -184 -55q-150 0 -243 102.5t-93 267.5q0 167 93 270.5t242 103.5t242 -103t93 -268q0 -178 -105 -283zM549 110q89 99 89 246q0 139 -74 225t-194 86q-119 0 -193 -86.5t-74 -226.5q-1 -143 73 -228.5t198 -85.5q74 0 129 38l-94 71
l35 43z" />
    <glyph glyph-name="R" unicode="R" horiz-adv-x="667" 
d="M72 712h322q101 0 161.5 -47.5t60.5 -144.5q0 -69 -36.5 -114.5t-102.5 -61.5q65 -12 92.5 -49.5t32.5 -111.5q0 -2 1 -27t2.5 -43t5 -43t10 -43t15.5 -27h-77q-9 11 -13 39t-6 72t-2 47q-7 97 -47 128.5t-142 31.5h-209v-318h-68v712zM140 654v-282h201q44 0 76 5
t64.5 19t50 44.5t17.5 75.5q0 138 -177 138h-232z" />
    <glyph glyph-name="S" unicode="S" horiz-adv-x="630" 
d="M569 507h-66q-4 79 -56.5 120.5t-141.5 41.5q-84 0 -131 -35t-47 -99q0 -23 5.5 -40.5t20 -30.5t27 -21.5t40.5 -17t45 -13t54 -12.5q40 -9 65 -15t57 -16t51.5 -20t40.5 -25t32 -33t18.5 -42.5t7.5 -54.5q0 -73 -40.5 -122t-98.5 -68t-129 -19q-133 0 -208.5 65
t-75.5 179v6h65q0 -97 59.5 -146t164.5 -49q92 0 145 39t53 108q0 67 -50.5 95.5t-190.5 61.5q-45 10 -66.5 16t-57.5 21t-53.5 32.5t-31.5 47.5t-14 70q0 90 66.5 142.5t181.5 52.5q116 0 185 -55.5t74 -163.5z" />
    <glyph glyph-name="T" unicode="T" 
d="M562 712v-58h-250v-654h-68v654h-250v58h568z" />
    <glyph glyph-name="U" unicode="U" horiz-adv-x="685" 
d="M620 712v-445q0 -138 -68.5 -210t-205.5 -72q-140 0 -210.5 72t-70.5 212v443h68v-426q0 -123 46.5 -183.5t167.5 -60.5q62 0 103 17t63 51t30.5 76t8.5 101v425h68z" />
    <glyph glyph-name="V" unicode="V" horiz-adv-x="593" 
d="M601 712l-264 -712h-79l-267 712h76l186 -512q26 -72 45 -142q6 18 21 66.5t25 74.5l185 513h72z" />
    <glyph glyph-name="W" unicode="W" horiz-adv-x="907" 
d="M904 712l-197 -712h-73l-145 501q-28 99 -36 147q-8 -26 -20.5 -75t-18.5 -70l-142 -503h-74l-197 712h71l133 -494q13 -49 33 -147q11 62 36 147l141 494h77l144 -501q27 -93 34 -140q4 16 14.5 64.5t17.5 74.5l134 502h68z" />
    <glyph glyph-name="X" unicode="X" horiz-adv-x="574" 
d="M569 712l-243 -346l257 -366h-82l-178 255q-21 30 -27 41.5t-11 19.5q-5 -5 -12.5 -16t-16.5 -25t-12 -19l-180 -256h-78l259 366l-243 346h80l159 -228q9 -13 23.5 -37.5t20.5 -33.5q25 36 46 72l163 227h75z" />
    <glyph glyph-name="Y" unicode="Y" horiz-adv-x="611" 
d="M622 712l-282 -418v-294h-67v294l-283 418h81l199 -298q6 -9 12.5 -19.5t14.5 -23.5t12 -20q17 32 36 60l200 301h77z" />
    <glyph glyph-name="Z" unicode="Z" horiz-adv-x="574" 
d="M552 712v-59l-470 -595h480v-58h-557v61l470 593h-437v58h514z" />
    <glyph glyph-name="bracketleft" unicode="[" horiz-adv-x="241" 
d="M238 722v-49h-103v-807h103v-50h-162v906h162z" />
    <glyph glyph-name="backslash" unicode="\" horiz-adv-x="333" 
d="M350 -17h-53l-312 746h52z" />
    <glyph glyph-name="bracketright" unicode="]" horiz-adv-x="241" 
d="M165 722v-906h-162v50h103v806h-103v50h162z" />
    <glyph glyph-name="asciicircum" unicode="^" horiz-adv-x="600" 
d="M106 297l168 415h53l167 -415h-57l-138 352l-135 -352h-58z" />
    <glyph glyph-name="underscore" unicode="_" horiz-adv-x="500" 
d="M0 -125v50h500v-50h-500z" />
    <glyph glyph-name="grave" unicode="`" horiz-adv-x="185" 
d="M47 734l104 -141h-50l-134 141h80z" />
    <glyph glyph-name="a" unicode="a" horiz-adv-x="519" 
d="M511 51v-48q-23 -8 -50 -8q-41 0 -54 25t-13 69q-65 -103 -194 -103q-79 0 -123.5 38t-44.5 106q0 139 191 159q10 1 28 2.5t26.5 2.5t22 2.5t20 2.5t16 3t15 4t11.5 4.5t11 5.5q18 12 18 49q0 61 -34 86t-100 25q-65 0 -99.5 -29.5t-40.5 -91.5h-60q4 83 58 128t149 45
q88 0 138.5 -38t50.5 -110v-280q0 -20 1 -28.5t8.5 -16t24.5 -7.5q13 0 24 3zM391 280q-9 -10 -29.5 -16.5t-37.5 -9.5t-58 -8q-10 -1 -15 -2q-32 -4 -52.5 -9t-47 -16.5t-40 -32t-13.5 -50.5q0 -45 32 -71.5t86 -26.5q73 0 124 43.5t51 114.5v84z" />
    <glyph glyph-name="b" unicode="b" horiz-adv-x="574" 
d="M122 712v-295q23 54 71.5 83.5t111.5 29.5q105 0 167.5 -74t62.5 -198q0 -126 -63 -199.5t-170 -73.5q-66 0 -114 29.5t-70 85.5v-100h-57v712h61zM296 477q-81 0 -128.5 -59.5t-47.5 -160.5t48 -161t129 -60q79 0 126.5 60t47.5 161t-47.5 160.5t-127.5 59.5z" />
    <glyph glyph-name="c" unicode="c" horiz-adv-x="519" 
d="M491 184q-13 -90 -69.5 -144.5t-147.5 -54.5q-108 0 -173 73t-65 194q0 126 65.5 201.5t174.5 75.5q89 0 144.5 -47t66.5 -130h-64q-25 125 -146 125q-81 0 -128.5 -59.5t-47.5 -160.5t46 -160.5t124 -59.5q65 0 106 38.5t51 108.5h63z" />
    <glyph glyph-name="d" unicode="d" horiz-adv-x="574" 
d="M512 712v-712h-57v101q-23 -57 -71.5 -86.5t-113.5 -29.5q-107 0 -169.5 73.5t-62.5 198.5q0 124 62.5 198t167.5 74q134 0 183 -111v294h61zM275 477q-79 0 -126.5 -59.5t-47.5 -159.5q0 -102 47.5 -162t127.5 -60q82 0 129.5 59t47.5 162q0 92 -45 156t-133 64z" />
    <glyph glyph-name="e" unicode="e" horiz-adv-x="519" 
d="M488 169q-17 -87 -74 -136.5t-146 -49.5q-107 0 -171.5 73t-64.5 195t65.5 199.5t169.5 77.5q109 0 167.5 -77t58.5 -191v-18h-397q0 -89 43.5 -148.5t130.5 -59.5q127 0 157 135h61zM430 293q-5 86 -49 134.5t-116 48.5q-78 0 -118.5 -51t-50.5 -132h334z" />
    <glyph glyph-name="f" unicode="f" horiz-adv-x="259" 
d="M272 713v-53q-21 3 -42 3q-22 0 -36.5 -5t-22 -11.5t-11 -22t-4 -25.5t-0.5 -34v-51h103v-51h-103v-463h-63v463h-88v51h88v59q0 73 29.5 108.5t101.5 35.5q19 0 48 -4z" />
    <glyph glyph-name="g" unicode="g" 
d="M496 514v-486q0 -230 -230 -230q-94 0 -149 40.5t-60 114.5h63q15 -106 149 -106q91 0 129.5 47t38.5 139v86q-52 -113 -178 -113q-102 0 -162.5 69.5t-60.5 185.5q0 121 62.5 194t165.5 73q122 0 175 -111v97h57zM267 474q-77 0 -122.5 -56t-45.5 -152q0 -94 45 -150
t121 -56q79 0 125 57.5t46 155.5q0 92 -46 146.5t-123 54.5z" />
    <glyph glyph-name="h" unicode="h" horiz-adv-x="537" 
d="M122 712q0 -256 -1 -295q55 110 178 110q89 0 134.5 -48.5t45.5 -138.5v-340h-63v332q0 142 -132 142q-83 0 -122.5 -56.5t-39.5 -146.5v-271h-62v712h62z" />
    <glyph glyph-name="i" unicode="i" horiz-adv-x="185" 
d="M124 715v-103h-63v103h63zM124 514v-514h-63v514h63z" />
    <glyph glyph-name="j" unicode="j" horiz-adv-x="185" 
d="M127 514v-548q0 -43 -3.5 -68t-15 -49.5t-37.5 -35t-68 -10.5q-10 0 -31 3v52q11 -1 24 -1q27 0 39.5 4.5t21 27.5t8.5 71v554h62zM127 716v-103h-62v103h62z" />
    <glyph glyph-name="k" unicode="k" horiz-adv-x="500" 
d="M493 514l-220 -189l235 -325h-79l-205 282l-102 -87v-195h-60v712h60v-449l287 251h84z" />
    <glyph glyph-name="l" unicode="l" horiz-adv-x="185" 
d="M124 712v-712h-62v712h62z" />
    <glyph glyph-name="m" unicode="m" horiz-adv-x="833" 
d="M120 514v-90q33 52 73 78t98 26q56 0 94.5 -26.5t52.5 -73.5q53 100 171 100q70 0 117.5 -40.5t47.5 -120.5v-367h-63v350q0 122 -119 122q-68 0 -105.5 -42.5t-37.5 -114.5v-315h-62v345q0 127 -113 127q-75 0 -112.5 -50t-37.5 -130v-292h-63v514h59z" />
    <glyph glyph-name="n" unicode="n" horiz-adv-x="537" 
d="M119 514v-97q32 57 74.5 84t107.5 27q80 0 129 -44t49 -134v-350h-63v330q0 143 -131 143q-74 0 -118 -49.5t-44 -145.5v-278h-63v514h59z" />
    <glyph glyph-name="o" unicode="o" 
d="M279 529q111 0 176.5 -74t65.5 -200q0 -125 -65 -197.5t-177 -72.5t-178.5 73.5t-66.5 198.5q0 124 66.5 198t178.5 74zM278 476q-82 0 -131 -59.5t-49 -159.5q0 -102 48.5 -161t133.5 -59q82 0 130 59t48 160t-49 160.5t-131 59.5z" />
    <glyph glyph-name="p" unicode="p" horiz-adv-x="574" 
d="M120 514v-99q56 114 184 114q105 0 168.5 -75t63.5 -199q0 -122 -63 -196.5t-167 -74.5q-130 0 -182 111v-287h-61v706h57zM296 477q-81 0 -127.5 -59t-46.5 -162q0 -101 47.5 -160t128.5 -59q79 0 126.5 59.5t47.5 158.5q0 101 -47.5 161.5t-128.5 60.5z" />
    <glyph glyph-name="q" unicode="q" horiz-adv-x="574" 
d="M511 514v-705h-62q0 205 1 287q-52 -110 -184 -110q-105 0 -166.5 72.5t-61.5 196.5q0 126 63.5 200.5t170.5 74.5q128 0 181 -114v98h58zM276 478q-80 0 -127.5 -60t-47.5 -163q0 -100 47 -158.5t127 -58.5q81 0 128.5 59.5t47.5 161.5t-46.5 160.5t-128.5 58.5z" />
    <glyph glyph-name="r" unicode="r" horiz-adv-x="315" 
d="M323 522v-64q-4 0 -9.5 0.5t-7.5 0.5q-58 0 -103.5 -33.5t-60.5 -88.5q-12 -47 -12 -127v-210h-62v514h59v-123q33 71 76 100.5t120 30.5z" />
    <glyph glyph-name="s" unicode="s" horiz-adv-x="481" 
d="M429 364h-61q-9 112 -139 112q-55 0 -87.5 -23t-32.5 -62q0 -19 7 -33t16 -22.5t31.5 -16.5t39 -12.5t53.5 -12.5q33 -8 53 -13t49.5 -17.5t46.5 -27t29.5 -39t12.5 -55.5q0 -71 -56.5 -114.5t-147.5 -43.5q-99 0 -154 48t-57 136h61q0 -64 40 -98t112 -34
q63 0 101.5 27.5t38.5 72.5q0 24 -12.5 42t-33.5 28.5t-41.5 17t-43.5 11.5q-7 1 -10 2q-7 2 -32 7.5t-35 8t-32 9.5t-32 13t-25.5 17t-23 23.5t-13 29.5t-5.5 38q0 67 50.5 106t138.5 39t141 -42t53 -122z" />
    <glyph glyph-name="t" unicode="t" horiz-adv-x="296" 
d="M265 514v-51h-106v-326q0 -26 1 -36.5t6.5 -25t19.5 -19.5t38 -5q14 0 41 3v-54q-31 -4 -55 -4q-93 0 -107 59q-6 25 -6 113v295h-91v51h91v157h62v-157h106z" />
    <glyph glyph-name="u" unicode="u" horiz-adv-x="537" 
d="M475 514v-514h-58v95q-57 -110 -181 -110q-82 0 -129.5 47.5t-47.5 139.5v342h63v-315q0 -80 29.5 -119.5t100.5 -39.5q75 0 118 54.5t43 135.5v284h62z" />
    <glyph glyph-name="v" unicode="v" horiz-adv-x="463" 
d="M459 514l-189 -514h-68l-198 514h67l120 -313q14 -39 47 -139q30 96 47 144l111 308h63z" />
    <glyph glyph-name="w" unicode="w" horiz-adv-x="741" 
d="M733 514l-167 -514h-68l-102 338q-13 44 -26 101q-14 -58 -26 -101l-100 -338h-70l-167 514h68l98 -313q9 -27 36 -133q30 120 34 135l92 311h72l98 -326q9 -29 29 -120q16 68 31 118l103 328h65z" />
    <glyph glyph-name="x" unicode="x" horiz-adv-x="481" 
d="M460 514l-182 -240l203 -274h-80l-137 188q-3 4 -7.5 10.5t-9 13.5t-9.5 15q-11 -18 -26 -38l-136 -189h-75l199 270l-184 244h80l111 -150q6 -7 16.5 -23.5t15.5 -24.5q29 42 33 48l114 150h74z" />
    <glyph glyph-name="y" unicode="y" horiz-adv-x="463" 
d="M460 514l-202 -533q-38 -102 -66 -139t-86 -37q-25 0 -55 5v55q28 -7 45 -7q38 0 57.5 28t44.5 97q5 14 8 21l-207 510h69l139 -354q8 -21 31 -91q26 85 31 98l127 347h64z" />
    <glyph glyph-name="z" unicode="z" horiz-adv-x="463" 
d="M432 514v-44l-340 -417h354v-53h-430v51l334 410h-312v53h394z" />
    <glyph glyph-name="braceleft" unicode="{" horiz-adv-x="333" 
d="M4 288q139 0 139 150v76q0 106 40 154.5t145 54.5v-35q-74 -4 -100 -41t-26 -114v-65q0 -41 -4.5 -69.5t-17 -57.5t-39.5 -46.5t-68 -23.5q43 -8 70.5 -25t39.5 -45.5t15.5 -56t3.5 -71.5v-55q0 -85 25 -122.5t101 -41.5v-35q-110 7 -147.5 57.5t-37.5 164.5v63
q0 78 -30 109.5t-109 39.5v35z" />
    <glyph glyph-name="bar" unicode="|" horiz-adv-x="222" 
d="M84 -214v1000h54v-1000h-54z" />
    <glyph glyph-name="braceright" unicode="}" horiz-adv-x="333" 
d="M328 253q-79 -8 -109 -39.5t-30 -109.5v-63q0 -114 -37.5 -164.5t-147.5 -57.5v35q76 4 101 41.5t25 122.5v55q0 44 3.5 71.5t15.5 56t39.5 45.5t70.5 25q-41 6 -68 23.5t-39.5 46.5t-17 57.5t-4.5 69.5v65q0 77 -26 114t-100 41v35q105 -6 145 -54.5t40 -154.5v-76
q0 -150 139 -150v-35z" />
    <glyph glyph-name="asciitilde" unicode="~" horiz-adv-x="600" 
d="M562 320q-5 -55 -35 -92t-83 -37q-39 0 -136 33q-5 2 -43 15.5t-61.5 19.5t-42.5 6q-31 0 -54 -23t-28 -60h-39q11 60 37.5 95.5t83.5 35.5q40 0 155 -40q4 -2 28 -10.5t35.5 -12.5t30.5 -8t33 -4q65 0 83 82h36z" />
    <glyph glyph-name="sterling" unicode="&#xa3;" 
d="M514 475h-62q-2 88 -46.5 134.5t-125.5 46.5q-73 0 -118.5 -38.5t-45.5 -100.5q0 -14 3 -28.5t6 -25.5t10.5 -26.5t12 -24t14.5 -26.5t14 -25h160v-33h-142q22 -48 22 -92q0 -94 -109 -188q65 31 110 31q39 0 84 -15q69 -23 91 -23q63 0 118 52l32 -47q-59 -61 -147 -61
q-14 0 -26 1t-26 5t-20.5 6t-25 8.5t-25.5 8.5q-45 15 -81 15q-32 0 -55 -9.5t-57 -32.5l-36 52q112 85 112 185q0 48 -27 104h-82v33h62q-20 36 -28.5 52.5t-17.5 46.5t-9 59q0 85 63.5 138.5t164.5 53.5q113 0 173 -62t60 -174z" />
    <glyph glyph-name="currency" unicode="&#xa4;" 
d="M51 162l63 63q-46 61 -46 131q0 71 45 130l-63 64l34 34l63 -64q57 45 131 45q70 0 131 -44l63 62l34 -34l-63 -63q45 -64 45 -131q0 -69 -46 -129l64 -65l-34 -34l-64 65q-56 -47 -130 -47q-70 0 -130 46l-63 -63zM278 513q-65 0 -111.5 -46t-46.5 -112
q0 -65 46.5 -111.5t111.5 -46.5t111.5 46.5t46.5 111.5q0 66 -46.5 112t-111.5 46z" />
    <glyph glyph-name="brokenbar" unicode="&#xa6;" horiz-adv-x="222" 
d="M84 -89v250h54v-250h-54zM84 411v250h54v-250h-54z" />
    <glyph glyph-name="section" unicode="&#xa7;" 
d="M455 539h-61q-7 125 -122 125q-48 0 -78 -25.5t-30 -65.5q0 -17 6 -31.5t12.5 -24.5t25.5 -23.5t31 -21t44 -25t49 -27.5q88 -51 116 -76q62 -53 62 -120q0 -48 -28.5 -85.5t-80.5 -58.5q58 -50 58 -114q0 -66 -50 -108t-129 -42q-89 0 -138.5 49.5t-51.5 134.5h62
q3 -65 36 -98.5t94 -33.5q50 0 82 26.5t32 68.5q0 18 -8 34t-17 27.5t-32.5 28t-38 26t-49.5 29.5q-11 7 -17 10q-8 5 -35.5 20t-39 22t-34 22.5t-33.5 28t-24.5 30.5t-19 38t-5.5 43q0 52 29.5 89t79.5 55q-50 46 -50 104q0 64 48 105t123 41q86 0 133.5 -46t48.5 -131z
M188 435q-85 -39 -85 -107q0 -33 23 -60t78 -60q15 -9 50 -29t60.5 -36t47.5 -32q42 15 65 42t23 62q0 61 -106 126q-33 20 -67 39t-53 30t-36 25z" />
    <glyph glyph-name="copyright" unicode="&#xa9;" horiz-adv-x="800" 
d="M400 720q152 0 259.5 -107.5t107.5 -259.5q0 -151 -107.5 -258.5t-259.5 -107.5t-259.5 107t-107.5 259t107.5 259.5t259.5 107.5zM400 685q-137 0 -234.5 -97t-97.5 -234q0 -138 97.5 -235t234.5 -97t234.5 97t97.5 234t-97.5 234.5t-234.5 97.5zM577 278
q-8 -59 -55 -97.5t-111 -38.5q-85 0 -142 61t-57 153t54.5 153t136.5 61q69 0 117.5 -41t53.5 -103h-44q-9 47 -42 75t-82 28q-62 0 -101.5 -47.5t-39.5 -122.5q0 -77 41 -126.5t106 -49.5q46 0 78 25.5t43 69.5h44z" />
    <glyph glyph-name="guillemotleft" unicode="&#xab;" horiz-adv-x="426" 
d="M354 423v-66l-94 -91l94 -90v-66l-134 124v62zM193 422v-65l-94 -91l94 -89v-67l-134 125v62z" />
    <glyph glyph-name="logicalnot" unicode="&#xac;" horiz-adv-x="600" 
d="M51 320v48h497v-231h-50v183h-447z" />
    <glyph glyph-name="registered" unicode="&#xae;" horiz-adv-x="400" 
d="M199 723q76 0 129.5 -53.5t53.5 -129.5t-53.5 -130t-129.5 -54q-75 0 -128.5 54t-53.5 130t53.5 129.5t128.5 53.5zM199 696q-64 0 -109.5 -46t-45.5 -111q0 -64 45.5 -110t109.5 -46t110 46t46 110q0 65 -46 111t-110 46zM129 633h69q84 0 84 -54q0 -32 -34 -44
q31 -15 31 -58q0 -16 6 -28h-33q-3 10 -3.5 20.5t-1.5 14.5q-4 27 -15 32.5t-44 5.5h-28v-73h-31v184zM160 548h36q55 0 55 31q0 11 -5 17t-16.5 8t-16 2.5t-18.5 0.5h-35v-59z" />
    <glyph glyph-name="degree" unicode="&#xb0;" horiz-adv-x="400" 
d="M200 712q62 0 105 -43t43 -105t-43 -105t-105 -43t-105 43t-43 105t43 105t105 43zM200 664q-41 0 -70.5 -29.5t-29.5 -70.5q0 -42 29.5 -71t70.5 -29t70.5 29t29.5 71q0 41 -29.5 70.5t-70.5 29.5z" />
    <glyph glyph-name="plusminus" unicode="&#xb1;" horiz-adv-x="600" 
d="M273 86v178h-222v48h222v177h53v-177h222v-48h-222v-178h-53zM51 -8v48h497v-48h-497z" />
    <glyph glyph-name="mu" unicode="&#xb5;" horiz-adv-x="537" 
d="M475 514v-514h-58v95q-59 -110 -181 -110q-57 0 -113 35v-227h-64v721h63v-305q0 -40 4.5 -66.5t17 -52t39.5 -38t69 -12.5q60 0 97.5 32t50.5 76.5t13 101.5v264h62z" />
    <glyph glyph-name="paragraph" unicode="&#xb6;" horiz-adv-x="600" 
d="M543 668h-53v-841h-54v841h-126v-841h-54v436q-97 5 -152 63t-55 156q0 113 70.5 171.5t185.5 58.5h238v-44z" />
    <glyph glyph-name="periodcentered" unicode="&#xb7;" horiz-adv-x="278" 
d="M181 347v-103h-82v103h82z" />
    <glyph glyph-name="guillemotright" unicode="&#xbb;" horiz-adv-x="426" 
d="M233 423l134 -127v-60l-134 -125v65l94 90l-94 89v68zM72 422l133 -124v-61l-133 -126v65l94 91l-94 90v65z" />
    <glyph glyph-name="divide" unicode="&#xf7;" horiz-adv-x="600" 
d="M51 216v49h497v-49h-497zM264 13v100h70v-100h-70zM264 368v100h70v-100h-70z" />
    <glyph glyph-name="florin" unicode="&#x192;" 
d="M421 437l-9 -49h-113l-69 -367q-12 -63 -24.5 -96t-33.5 -57q-37 -43 -110 -43q-22 0 -55 4l10 54q21 -3 40 -3q51 0 73 32q21 29 38 118l68 358h-101l10 49h101l19 102q15 79 43 115q39 51 120 51q33 0 62 -4l-11 -53q-24 3 -48 3q-44 0 -67.5 -25.5t-35.5 -87.5
l-20 -101h113z" />
    <glyph glyph-name="afii10023" unicode="&#x401;" horiz-adv-x="593" 
d="M453 882v-102h-65v102h65zM272 882v-102h-66v102h66zM566 712v-58h-426v-257h399v-57h-399v-282h430v-58h-498v712h494z" />
    <glyph glyph-name="afii10051" unicode="&#x402;" horiz-adv-x="750" 
d="M705 171q0 -128 -70.5 -211.5t-191.5 -83.5v59q193 13 193 237q0 92 -44.5 148.5t-122.5 56.5q-86 0 -131.5 -54t-45.5 -156v-167h-68v653h-229v59h566v-59h-269v-322h3q24 50 72.5 76.5t107.5 26.5q103 0 166.5 -73.5t63.5 -189.5z" />
    <glyph glyph-name="afii10052" unicode="&#x403;" horiz-adv-x="519" 
d="M138 0h-67v712h441v-59h-374v-653zM376 902l-126 -141h-50l99 141h77z" />
    <glyph glyph-name="afii10053" unicode="&#x404;" horiz-adv-x="704" 
d="M668 248q-17 -122 -99 -193t-204 -71q-148 0 -237 101t-89 270q0 158 88.5 266t243.5 108q108 0 193.5 -63.5t97.5 -167.5h-68q-16 79 -77 125.5t-148 46.5q-109 0 -179.5 -74.5t-81.5 -198.5h386v-57h-388q5 -136 75.5 -217t185.5 -81q97 0 157 56t77 150h67z" />
    <glyph glyph-name="afii10054" unicode="&#x405;" horiz-adv-x="630" 
d="M569 507h-66q-4 79 -56.5 120.5t-141.5 41.5q-84 0 -131 -35t-47 -99q0 -23 5.5 -40.5t20 -30.5t27 -21.5t40.5 -17t45 -13t54 -12.5q40 -9 65 -15t57 -16t51.5 -20t40.5 -25t32 -33t18.5 -42.5t7.5 -54.5q0 -73 -40.5 -122t-98.5 -68t-129 -19q-133 0 -208.5 65
t-75.5 179v6h65q0 -97 59.5 -146t164.5 -49q92 0 145 39t53 108q0 67 -50.5 95.5t-190.5 61.5q-45 10 -66.5 16t-57.5 21t-53.5 32.5t-31.5 47.5t-14 70q0 90 66.5 142.5t181.5 52.5q116 0 185 -55.5t74 -163.5z" />
    <glyph glyph-name="afii10055" unicode="&#x406;" horiz-adv-x="222" 
d="M145 712v-712h-68v712h68z" />
    <glyph glyph-name="afii10056" unicode="&#x407;" horiz-adv-x="222" 
d="M145 712v-712h-68v712h68zM234 882v-102h-65v102h65zM53 882v-102h-65v102h65z" />
    <glyph glyph-name="afii10057" unicode="&#x408;" horiz-adv-x="500" 
d="M430 712v-519q0 -209 -201 -209q-108 0 -156.5 55t-48.5 163q0 14 1 28h65v-21q0 -85 28.5 -127t110.5 -42q80 0 107 44t27 127v501h67z" />
    <glyph glyph-name="afii10058" unicode="&#x409;" horiz-adv-x="1000" 
d="M971 206q0 -95 -57 -150.5t-155 -55.5h-261v654h-256l-13 -419q-7 -250 -150 -250q-37 0 -69 14v56q20 -12 67 -12q41 0 62 51t25 181l14 437h388v-300h193q98 0 155 -55.5t57 -150.5zM903 206q0 69 -42 108.5t-117 39.5h-178v-296h178q75 0 117 39.5t42 108.5z" />
    <glyph glyph-name="afii10059" unicode="&#x40a;" horiz-adv-x="1000" 
d="M489 354h-349v-354h-68v712h68v-300h349v300h68v-300h203q98 0 155 -55.5t57 -150.5t-57 -150.5t-155 -55.5h-271v354zM904 206q0 69 -42 108.5t-117 39.5h-188v-296h188q75 0 117 39.5t42 108.5z" />
    <glyph glyph-name="afii10060" unicode="&#x40b;" horiz-adv-x="750" 
d="M450 434q59 0 102 -12.5t67 -31.5t38.5 -48t18.5 -54.5t4 -58.5v-229h-68v225q0 21 -2 38t-11.5 39.5t-25 37t-45.5 25t-71 10.5q-39 0 -86.5 -14t-78.5 -32v-329h-68v654h-229v58h566v-58h-269v-263q30 16 79 29.5t79 13.5z" />
    <glyph glyph-name="afii10061" unicode="&#x40c;" horiz-adv-x="648" 
d="M643 712l-321 -291l337 -421h-87l-298 375l-136 -124v-251h-67v712h67v-383q42 41 47 45l368 338h90zM436 902l-126 -141h-50l99 141h77z" />
    <glyph glyph-name="afii10062" unicode="&#x40e;" horiz-adv-x="593" 
d="M-7 712h73l233 -475l231 475h72l-284 -588q-41 -85 -80 -112t-98 -27q-34 0 -74 18v58q29 -18 80 -18q59 0 106 98l9 19zM162 886h39q5 -38 32 -60t71 -22q43 0 71 21.5t35 60.5h39q-23 -130 -146 -130q-62 0 -97.5 33.5t-43.5 96.5z" />
    <glyph glyph-name="afii10145" unicode="&#x40f;" horiz-adv-x="704" 
d="M386 0v-192h-68v192h-246v712h68v-654h424v654h68v-712h-246z" />
    <glyph glyph-name="afii10017" unicode="&#x410;" horiz-adv-x="630" 
d="M354 714l284 -714h-75l-86 224h-326l-87 -224h-73l288 714h75zM456 279l-140 371l-144 -371h284z" />
    <glyph glyph-name="afii10018" unicode="&#x411;" horiz-adv-x="667" 
d="M621 206q0 -95 -57 -150.5t-155 -55.5h-337v712h493v-58h-425v-242h269q98 0 155 -55.5t57 -150.5zM553 206q0 69 -42 108.5t-117 39.5h-254v-296h254q75 0 117 39.5t42 108.5z" />
    <glyph glyph-name="afii10019" unicode="&#x412;" horiz-adv-x="667" 
d="M72 712h305q96 0 159.5 -44t63.5 -134q0 -57 -35.5 -101t-87.5 -56q66 -13 108.5 -55t42.5 -118q0 -99 -68.5 -151.5t-172.5 -52.5h-315v712zM138 654v-257h226q71 0 120 30t49 98q0 40 -15.5 67t-44.5 40t-58.5 17.5t-68.5 4.5h-208zM138 342v-284h213q43 0 75.5 5
t65 19.5t50.5 45t18 75.5q0 43 -18.5 72.5t-52.5 43t-67 18.5t-75 5h-209z" />
    <glyph glyph-name="afii10020" unicode="&#x413;" horiz-adv-x="519" 
d="M138 0h-67v712h441v-58h-374v-654z" />
    <glyph glyph-name="afii10021" unicode="&#x414;" horiz-adv-x="704" 
d="M694 -192h-68v192h-552v-192h-68v250h65q27 50 46.5 102.5t30.5 114.5t17.5 101t9 111t2.5 91.5v92.5v41h442v-654h75v-250zM551 58v596h-306v-13q0 -86 -2 -136t-10 -137.5t-31 -164t-59 -145.5h408z" />
    <glyph glyph-name="afii10022" unicode="&#x415;" horiz-adv-x="593" 
d="M566 712v-58h-426v-257h399v-57h-399v-282h430v-58h-498v712h494z" />
    <glyph glyph-name="afii10024" unicode="&#x416;" horiz-adv-x="990" 
d="M361 356l-281 -356h-88l321 406l-296 306h92l352 -374v374h68v-374l352 374h92l-296 -306l321 -406h-88l-281 356l-100 -104v-252h-68v252z" />
    <glyph glyph-name="afii10025" unicode="&#x417;" horiz-adv-x="630" 
d="M590 209q0 -28 -8 -57t-28 -59.5t-49.5 -54t-76.5 -38.5t-104 -15q-133 0 -208.5 65t-75.5 179v6h65q0 -97 59.5 -146t164.5 -49q87 0 140 48.5t53 119.5q0 61 -46.5 99.5t-115.5 38.5h-114v58h114q61 0 102 33t41 92q0 71 -48 107t-125 36q-88 0 -142.5 -41.5
t-58.5 -120.5h-66q5 107 77 163t188 56q107 0 175 -49t68 -145q0 -53 -31.5 -94.5t-73.5 -56.5v-3q58 -15 91 -59t33 -113z" />
    <glyph glyph-name="afii10026" unicode="&#x418;" horiz-adv-x="704" 
d="M72 0v712h68v-639l404 639h88v-712h-68v639l-404 -639h-88z" />
    <glyph glyph-name="afii10027" unicode="&#x419;" horiz-adv-x="704" 
d="M209 886h39q5 -38 32 -60t71 -22q43 0 71 21.5t35 60.5h39q-23 -130 -146 -130q-62 0 -97.5 33.5t-43.5 96.5zM72 0v712h68v-639l404 639h88v-712h-68v639l-404 -639h-88z" />
    <glyph glyph-name="afii10028" unicode="&#x41a;" horiz-adv-x="648" 
d="M643 712l-321 -291l337 -421h-87l-298 375l-136 -124v-251h-67v712h67v-383l415 383h90z" />
    <glyph glyph-name="afii10029" unicode="&#x41b;" horiz-adv-x="667" 
d="M598 0h-68v654h-287l-13 -419q-7 -250 -150 -250q-40 0 -72 14v56q19 -12 70 -12q41 0 62 51t25 181l14 437h419v-712z" />
    <glyph glyph-name="afii10030" unicode="&#x41c;" horiz-adv-x="833" 
d="M763 712v-712h-65v430q0 104 8 224q-21 -66 -47 -129l-210 -525h-61l-213 519q-22 53 -47 131q8 -117 8 -218v-432h-65v712h92l207 -508q10 -25 49 -134q5 13 21 60t26 72l204 510h93z" />
    <glyph glyph-name="afii10031" unicode="&#x41d;" horiz-adv-x="704" 
d="M632 712v-712h-68v344h-425v-344h-68v712h68v-310h425v310h68z" />
    <glyph glyph-name="afii10032" unicode="&#x41e;" horiz-adv-x="741" 
d="M370 729q149 0 242.5 -104t93.5 -271q0 -166 -93 -268.5t-244 -102.5q-150 0 -242 103t-92 270t92.5 270t242.5 103zM369 670q-119 0 -192.5 -86t-73.5 -226q0 -143 73 -229.5t194 -86.5t194.5 86t73.5 227t-74 228t-195 87z" />
    <glyph glyph-name="afii10033" unicode="&#x41f;" horiz-adv-x="704" 
d="M632 712v-712h-68v654h-425v-654h-68v712h561z" />
    <glyph glyph-name="afii10034" unicode="&#x420;" horiz-adv-x="630" 
d="M75 712h305q103 0 163.5 -51.5t60.5 -148.5q0 -102 -61 -155t-165 -53h-235v-304h-68v712zM143 654v-293h216q79 0 128 35.5t49 110.5q0 74 -45 110.5t-125 36.5h-223z" />
    <glyph glyph-name="afii10035" unicode="&#x421;" horiz-adv-x="704" 
d="M671 273q-11 -132 -94.5 -210.5t-211.5 -78.5q-148 0 -237 101t-89 270q0 158 88.5 266t243.5 108q108 0 193.5 -63.5t97.5 -167.5h-68q-16 79 -77 125.5t-148 46.5q-118 0 -190.5 -86.5t-72.5 -228.5t71.5 -227.5t189.5 -85.5q103 0 164 63.5t73 167.5h67z" />
    <glyph glyph-name="afii10036" unicode="&#x422;" 
d="M562 712v-58h-250v-654h-68v654h-250v58h568z" />
    <glyph glyph-name="afii10037" unicode="&#x423;" horiz-adv-x="593" 
d="M-7 712h73l233 -475l231 475h72l-284 -588q-41 -85 -80 -112t-98 -27q-34 0 -74 18v58q29 -18 80 -18q59 0 106 98l9 19z" />
    <glyph glyph-name="afii10038" unicode="&#x424;" horiz-adv-x="750" 
d="M720 362q0 -132 -90.5 -204t-220.5 -72v-86h-68v86q-130 0 -220.5 72t-90.5 204q0 128 90 200t221 72v78h68v-78q131 0 221 -72t90 -200zM653 362q0 105 -66 156.5t-178 57.5v-433q110 8 177 61.5t67 157.5zM341 143v433q-112 -6 -178 -57.5t-66 -156.5q0 -104 67 -157.5
t177 -61.5z" />
    <glyph glyph-name="afii10039" unicode="&#x425;" horiz-adv-x="574" 
d="M569 712l-243 -346l257 -366h-82l-178 255q-21 30 -27 41.5t-11 19.5q-5 -5 -12.5 -16t-16.5 -25t-12 -19l-180 -256h-78l259 366l-243 346h80l159 -228q9 -13 23.5 -37.5t20.5 -33.5q25 36 46 72l163 227h75z" />
    <glyph glyph-name="afii10040" unicode="&#x426;" horiz-adv-x="722" 
d="M707 -192h-68v192h-567v712h68v-654h424v654h68v-654h75v-250z" />
    <glyph glyph-name="afii10041" unicode="&#x427;" horiz-adv-x="640" 
d="M500 340q-36 -9 -106 -19.5t-113 -10.5q-59 0 -102 12.5t-67 31.5t-38.5 48t-18.5 54.5t-4 58.5v197h68v-193q0 -21 2 -38t11.5 -39.5t25 -37t45.5 -25t71 -10.5q110 0 226 29v314h68v-712h-68v340z" />
    <glyph glyph-name="afii10042" unicode="&#x428;" horiz-adv-x="1044" 
d="M72 0v712h68v-654h348v654h68v-654h348v654h68v-712h-900z" />
    <glyph glyph-name="afii10043" unicode="&#x429;" horiz-adv-x="1062" 
d="M72 0v712h68v-654h348v654h68v-654h348v654h68v-654h75v-250h-68v192h-907z" />
    <glyph glyph-name="afii10044" unicode="&#x42a;" horiz-adv-x="785" 
d="M756 206q0 -95 -57 -150.5t-155 -55.5h-317v654h-232v58h300v-300h249q98 0 155 -55.5t57 -150.5zM688 206q0 69 -42 108.5t-117 39.5h-234v-296h234q75 0 117 39.5t42 108.5z" />
    <glyph glyph-name="afii10045" unicode="&#x42b;" horiz-adv-x="841" 
d="M601 206q0 -95 -57 -150.5t-155 -55.5h-317v712h68v-300h249q98 0 155 -55.5t57 -150.5zM533 206q0 69 -42 108.5t-117 39.5h-234v-296h234q75 0 117 39.5t42 108.5zM701 712h68v-712h-68v712z" />
    <glyph glyph-name="afii10046" unicode="&#x42c;" horiz-adv-x="630" 
d="M601 206q0 -95 -57 -150.5t-155 -55.5h-317v712h68v-300h249q98 0 155 -55.5t57 -150.5zM533 206q0 69 -42 108.5t-117 39.5h-234v-296h234q75 0 117 39.5t42 108.5z" />
    <glyph glyph-name="afii10047" unicode="&#x42d;" horiz-adv-x="704" 
d="M665 355q0 -169 -89 -270t-237 -101q-122 0 -204 71t-99 193h67q17 -94 77 -150t157 -56q115 0 185.5 81t75.5 217h-378v57h376q-11 124 -81.5 198.5t-179.5 74.5q-87 0 -148 -46.5t-77 -125.5h-68q12 104 97.5 167.5t193.5 63.5q155 0 243.5 -108t88.5 -266z" />
    <glyph glyph-name="afii10048" unicode="&#x42e;" horiz-adv-x="1000" 
d="M629 729q149 0 242.5 -104t93.5 -271q0 -166 -93 -268.5t-244 -102.5q-147 0 -238.5 99.5t-95.5 261.5h-156v-344h-68v712h68v-310h158q13 148 103.5 237.5t229.5 89.5zM628 670q-119 0 -192.5 -86t-73.5 -226q0 -143 73 -229.5t194 -86.5t194.5 86t73.5 227t-74 228
t-195 87z" />
    <glyph glyph-name="afii10049" unicode="&#x42f;" horiz-adv-x="630" 
d="M337 316l-245 -316h-88l245 316q-95 3 -150.5 55.5t-55.5 143.5q0 93 58 145t158 52h299v-712h-68v316h-153zM490 374v280h-216q-76 0 -119.5 -35.5t-43.5 -103.5t43.5 -104.5t119.5 -36.5h216z" />
    <glyph glyph-name="afii10065" unicode="&#x430;" horiz-adv-x="519" 
d="M511 51v-48q-23 -8 -50 -8q-41 0 -54 25t-13 69q-65 -103 -194 -103q-79 0 -123.5 38t-44.5 106q0 139 191 159q10 1 28 2.5t26.5 2.5t22 2.5t20 2.5t16 3t15 4t11.5 4.5t11 5.5q18 12 18 49q0 61 -34 86t-100 25q-65 0 -99.5 -29.5t-40.5 -91.5h-60q4 83 58 128t149 45
q88 0 138.5 -38t50.5 -110v-280q0 -20 1 -28.5t8.5 -16t24.5 -7.5q13 0 24 3zM391 280q-9 -10 -29.5 -16.5t-37.5 -9.5t-58 -8q-10 -1 -15 -2q-32 -4 -52.5 -9t-47 -16.5t-40 -32t-13.5 -50.5q0 -45 32 -71.5t86 -26.5q73 0 124 43.5t51 114.5v84z" />
    <glyph glyph-name="afii10066" unicode="&#x431;" 
d="M521 253q0 -121 -66 -194.5t-173 -73.5q-68 0 -116.5 25.5t-74.5 71t-37 98t-11 116.5q0 199 64 298q34 52 83 76t124 29l48 3q38 2 53 8t21 19h70q-8 -44 -38.5 -61t-100.5 -22l-76 -5q-87 -6 -133.5 -63.5t-63.5 -176.5h3q26 52 77.5 84t113.5 32q105 0 169 -71.5
t64 -192.5zM458 253q0 93 -49 152t-124 59q-80 0 -129.5 -57.5t-49.5 -153.5q0 -95 49.5 -155t126.5 -60t126.5 60t49.5 155z" />
    <glyph glyph-name="afii10067" unicode="&#x432;" horiz-adv-x="519" 
d="M485 144q0 -70 -48 -107t-137 -37h-241v514h241q79 0 122 -31.5t43 -90.5q0 -93 -89 -118v-2q109 -19 109 -128zM402 376q0 85 -109 85h-171v-168h171q53 0 81 22t28 61zM422 151q0 93 -129 93h-171v-191h171q129 0 129 98z" />
    <glyph glyph-name="afii10068" unicode="&#x433;" horiz-adv-x="400" 
d="M406 461h-278v-461h-63v514h341v-53z" />
    <glyph glyph-name="afii10069" unicode="&#x434;" 
d="M546 -164h-63v164h-414v-164h-63v217h61q71 131 71 395v66h336v-461h72v-217zM411 53v408h-212v-34q0 -242 -67 -374h279z" />
    <glyph glyph-name="afii10070" unicode="&#x435;" horiz-adv-x="519" 
d="M488 169q-17 -87 -74 -136.5t-146 -49.5q-107 0 -171.5 73t-64.5 195t65.5 199.5t169.5 77.5q109 0 167.5 -77t58.5 -191v-18h-397q0 -89 43.5 -148.5t130.5 -59.5q127 0 157 135h61zM430 293q-5 86 -49 134.5t-116 48.5q-78 0 -118.5 -51t-50.5 -132h334z" />
    <glyph glyph-name="afii10072" unicode="&#x436;" horiz-adv-x="741" 
d="M262 258l-190 -258h-77l223 300l-201 214h85l237 -262v262h63v-261l237 261h85l-201 -214l223 -300h-77l-190 258l-77 -80v-178h-63v178z" />
    <glyph glyph-name="afii10073" unicode="&#x437;" horiz-adv-x="485" 
d="M38 365q13 164 202 164q86 0 138.5 -33.5t52.5 -105.5q0 -43 -25 -75t-58 -39v-2q42 -8 71 -37t29 -84q0 -80 -60 -124t-147 -44q-99 0 -153.5 47t-59.5 129h63q17 -123 151 -123q78 0 109 32.5t31 80.5q0 42 -27 67.5t-83 25.5h-86v48h71q47 0 78 25t31 69q0 90 -127 90
q-129 0 -139 -111h-62z" />
    <glyph glyph-name="afii10074" unicode="&#x438;" horiz-adv-x="537" 
d="M478 0h-63v440l-278 -440h-78v514h63v-440l278 440h78v-514z" />
    <glyph glyph-name="afii10075" unicode="&#x439;" horiz-adv-x="537" 
d="M126 714h39q5 -38 32 -60t71 -22q43 0 71 21.5t35 60.5h39q-23 -130 -146 -130q-62 0 -97.5 33.5t-43.5 96.5zM478 0h-63v440l-278 -440h-78v514h63v-440l278 440h78v-514z" />
    <glyph glyph-name="afii10076" unicode="&#x43a;" horiz-adv-x="500" 
d="M274 314l232 -314h-79l-199 271l-105 -97v-174h-63v514h63v-263l286 263h84z" />
    <glyph glyph-name="afii10077" unicode="&#x43b;" horiz-adv-x="537" 
d="M480 0h-63v461h-210l-9 -258q-4 -112 -37 -163t-97 -51q-28 0 -55 11v51q18 -9 56 -9q65 0 71 164l10 308h334v-514z" />
    <glyph glyph-name="afii10078" unicode="&#x43c;" horiz-adv-x="667" 
d="M609 0h-63v423h-3l-181 -423h-56l-181 423h-3v-423h-63v514h84l192 -443l190 443h84v-514z" />
    <glyph glyph-name="afii10079" unicode="&#x43d;" horiz-adv-x="537" 
d="M478 0h-63v242h-293v-242h-63v514h63v-219h293v219h63v-514z" />
    <glyph glyph-name="afii10080" unicode="&#x43e;" 
d="M279 529q111 0 176.5 -74t65.5 -200q0 -125 -65 -197.5t-177 -72.5t-178.5 73.5t-66.5 198.5q0 124 66.5 198t178.5 74zM278 476q-82 0 -131 -59.5t-49 -159.5q0 -102 48.5 -161t133.5 -59q82 0 130 59t48 160t-49 160.5t-131 59.5z" />
    <glyph glyph-name="afii10081" unicode="&#x43f;" horiz-adv-x="537" 
d="M478 0h-63v461h-293v-461h-63v514h419v-514z" />
    <glyph glyph-name="afii10082" unicode="&#x440;" horiz-adv-x="574" 
d="M120 514v-99q56 114 184 114q105 0 168.5 -75t63.5 -199q0 -122 -63 -196.5t-167 -74.5q-130 0 -182 111v-287h-61v706h57zM296 477q-81 0 -127.5 -59t-46.5 -162q0 -101 47.5 -160t128.5 -59q79 0 126.5 59.5t47.5 158.5q0 101 -47.5 161.5t-128.5 60.5z" />
    <glyph glyph-name="afii10083" unicode="&#x441;" horiz-adv-x="519" 
d="M491 184q-13 -90 -69.5 -144.5t-147.5 -54.5q-108 0 -173 73t-65 194q0 126 65.5 201.5t174.5 75.5q89 0 144.5 -47t66.5 -130h-64q-25 125 -146 125q-81 0 -128.5 -59.5t-47.5 -160.5t46 -160.5t124 -59.5q65 0 106 38.5t51 108.5h63z" />
    <glyph glyph-name="afii10084" unicode="&#x442;" horiz-adv-x="444" 
d="M445 461h-191v-461h-63v461h-191v53h445v-53z" />
    <glyph glyph-name="afii10085" unicode="&#x443;" horiz-adv-x="463" 
d="M460 514l-202 -533q-38 -102 -66 -139t-86 -37q-25 0 -55 5v55q28 -7 45 -7q38 0 57.5 28t44.5 97q5 14 8 21l-207 510h69l139 -354q8 -21 31 -91q26 85 31 98l127 347h64z" />
    <glyph glyph-name="afii10086" unicode="&#x444;" horiz-adv-x="800" 
d="M763 256q0 -125 -57.5 -198t-142.5 -73q-41 0 -76 19t-53 50h-2v-246l-63 1v245q0 -1 -2 0q-18 -31 -53 -50t-76 -19q-85 0 -142.5 73t-57.5 198q0 133 53 204t148 71q87 0 128 -70h2v251h63v-251h2q41 70 128 70q95 0 148 -71t53 -204zM700 256q0 112 -43 167t-111 55
q-48 0 -81 -31t-33 -79v-218q0 -50 33 -81t82 -31q71 0 112 54t41 164zM369 150v218q0 48 -33 79t-81 31q-68 0 -111 -55t-43 -167q0 -110 41 -164t112 -54q49 0 82 31t33 81z" />
    <glyph glyph-name="afii10087" unicode="&#x445;" horiz-adv-x="481" 
d="M460 514l-182 -240l203 -274h-80l-137 188q-3 4 -7.5 10.5t-9 13.5t-9.5 15q-11 -18 -26 -38l-136 -189h-75l199 270l-184 244h80l111 -150q6 -7 16.5 -23.5t15.5 -24.5q29 42 33 48l114 150h74z" />
    <glyph glyph-name="afii10088" unicode="&#x446;" 
d="M546 -164h-63v164h-427v514h63v-461h293v461h63v-461h71v-217z" />
    <glyph glyph-name="afii10089" unicode="&#x447;" horiz-adv-x="500" 
d="M381 245q-84 -31 -176 -31q-81 0 -122 39.5t-41 126.5v134h63v-141q0 -35 9.5 -57.5t29 -31.5t34.5 -11t40 -2q87 0 163 31v212h63v-514h-63v245z" />
    <glyph glyph-name="afii10090" unicode="&#x448;" horiz-adv-x="789" 
d="M59 0v514h63v-461h241v461h63v-461h241v461h63v-514h-671z" />
    <glyph glyph-name="afii10091" unicode="&#x449;" horiz-adv-x="808" 
d="M56 0v514h63v-461h241v461h63v-461h241v461h63v-461h71v-217h-63v164h-679z" />
    <glyph glyph-name="afii10092" unicode="&#x44a;" horiz-adv-x="611" 
d="M169 461h-169v53h232v-202h195q75 0 119 -42t44 -114q0 -73 -44 -114.5t-119 -41.5h-258v461zM527 156q0 49 -30.5 76t-84.5 27h-180v-206h180q55 0 85 26.5t30 76.5z" />
    <glyph glyph-name="afii10093" unicode="&#x44b;" horiz-adv-x="667" 
d="M57 514h63v-202h167q75 0 119 -42t44 -114q0 -73 -44 -114.5t-119 -41.5h-230v514zM387 156q0 49 -30.5 76t-84.5 27h-152v-206h152q55 0 85 26.5t30 76.5zM547 514h63v-514h-63v514z" />
    <glyph glyph-name="afii10094" unicode="&#x44c;" horiz-adv-x="500" 
d="M59 514h63v-202h195q75 0 119 -42t44 -114q0 -73 -44 -114.5t-119 -41.5h-258v514zM417 156q0 49 -30.5 76t-84.5 27h-180v-206h180q55 0 85 26.5t30 76.5z" />
    <glyph glyph-name="afii10095" unicode="&#x44d;" horiz-adv-x="519" 
d="M483 252q0 -121 -65 -194t-173 -73q-86 0 -141.5 49t-72.5 132h63q14 -62 54 -95.5t100 -33.5q73 0 118.5 53.5t50.5 145.5h-236v53h236q-8 87 -54.5 137.5t-120.5 50.5q-115 0 -143 -113h-65q14 78 68.5 121.5t140.5 43.5q109 0 174.5 -75.5t65.5 -201.5z" />
    <glyph glyph-name="afii10096" unicode="&#x44e;" horiz-adv-x="760" 
d="M483 529q111 0 176.5 -74t65.5 -200q0 -125 -65 -197.5t-177 -72.5q-109 0 -174.5 69.5t-70.5 187.5h-116v-242h-63v514h63v-219h118q11 108 76 171t167 63zM482 476q-82 0 -131 -59.5t-49 -159.5q0 -102 48.5 -161t133.5 -59q82 0 130 59t48 160t-49 160.5t-131 59.5z
" />
    <glyph glyph-name="afii10097" unicode="&#x44f;" horiz-adv-x="519" 
d="M457 0h-63v216h-128l-181 -216h-82l191 218q-70 5 -111.5 43.5t-41.5 104.5q0 68 42.5 108t113.5 40h260v-514zM394 461h-182q-51 0 -79.5 -25.5t-28.5 -70.5t28.5 -70.5t79.5 -25.5h182v192z" />
    <glyph glyph-name="afii10071" unicode="&#x451;" horiz-adv-x="519" 
d="M383 712v-100h-65v100h65zM202 712v-100h-66v100h66zM488 169q-17 -87 -74 -136.5t-146 -49.5q-107 0 -171.5 73t-64.5 195t65.5 199.5t169.5 77.5q109 0 167.5 -77t58.5 -191v-18h-397q0 -89 43.5 -148.5t130.5 -59.5q127 0 157 135h61zM430 293q-5 86 -49 134.5
t-116 48.5q-78 0 -118.5 -51t-50.5 -132h334z" />
    <glyph glyph-name="afii10099" unicode="&#x452;" horiz-adv-x="537" 
d="M478 93q0 -116 -71.5 -198t-188.5 -86v59q91 5 144 71t53 163v75q0 156 -129 156q-73 0 -118.5 -49t-45.5 -128v-156h-63v461h-52v53h52v198h63v-198h233v-53h-233v-179h2q46 104 174 104q180 0 180 -199v-94z" />
    <glyph glyph-name="afii10100" unicode="&#x453;" horiz-adv-x="400" 
d="M396 461h-274v-461h-63v514h337v-53zM329 734l-126 -141h-51l100 141h77z" />
    <glyph glyph-name="afii10101" unicode="&#x454;" horiz-adv-x="519" 
d="M488 166q-17 -83 -72.5 -132t-141.5 -49q-108 0 -173 73t-65 194q0 126 65.5 201.5t174.5 75.5q86 0 140.5 -43.5t68.5 -121.5h-65q-28 113 -143 113q-74 0 -120.5 -50.5t-54.5 -137.5h241v-53h-241q5 -92 50.5 -145.5t118.5 -53.5q60 0 100 33.5t54 95.5h63z" />
    <glyph glyph-name="afii10102" unicode="&#x455;" horiz-adv-x="481" 
d="M429 364h-61q-9 112 -139 112q-55 0 -87.5 -23t-32.5 -62q0 -19 7 -33t16 -22.5t31.5 -16.5t39 -12.5t53.5 -12.5q33 -8 53 -13t49.5 -17.5t46.5 -27t29.5 -39t12.5 -55.5q0 -71 -56.5 -114.5t-147.5 -43.5q-99 0 -154 48t-57 136h61q0 -64 40 -98t112 -34
q63 0 101.5 27.5t38.5 72.5q0 24 -12.5 42t-33.5 28.5t-41.5 17t-43.5 11.5q-7 1 -10 2q-7 2 -32 7.5t-35 8t-32 9.5t-32 13t-25.5 17t-23 23.5t-13 29.5t-5.5 38q0 67 50.5 106t138.5 39t141 -42t53 -122z" />
    <glyph glyph-name="afii10103" unicode="&#x456;" horiz-adv-x="185" 
d="M124 715v-103h-63v103h63zM124 514v-514h-63v514h63z" />
    <glyph glyph-name="afii10104" unicode="&#x457;" horiz-adv-x="185" 
d="M124 514v-514h-63v514h63zM216 714v-102h-65v102h65zM35 714v-102h-66v102h66z" />
    <glyph glyph-name="afii10105" unicode="&#x458;" horiz-adv-x="185" 
d="M127 514v-548q0 -43 -3.5 -68t-15 -49.5t-37.5 -35t-68 -10.5q-10 0 -31 3v52q11 -1 24 -1q27 0 39.5 4.5t21 27.5t8.5 71v554h62zM127 716v-103h-62v103h62z" />
    <glyph glyph-name="afii10106" unicode="&#x459;" horiz-adv-x="778" 
d="M748 156q0 -73 -44 -114.5t-119 -41.5h-202v461h-176l-9 -258q-4 -112 -37 -163t-97 -51q-28 0 -55 11v51q18 -9 56 -9q65 0 71 164l10 308h300v-202h139q75 0 119 -42t44 -114zM685 156q0 49 -30.5 76t-84.5 27h-124v-206h124q55 0 85 26.5t30 76.5z" />
    <glyph glyph-name="afii10107" unicode="&#x45a;" horiz-adv-x="778" 
d="M746 156q0 -73 -44 -114.5t-119 -41.5h-208v259h-253v-259h-63v514h63v-202h253v202h63v-202h145q75 0 119 -42t44 -114zM683 156q0 49 -30.5 76t-84.5 27h-130v-206h130q55 0 85 26.5t30 76.5z" />
    <glyph glyph-name="afii10108" unicode="&#x45b;" horiz-adv-x="537" 
d="M7 461v53h52v198h63v-198h233v-53h-233v-179h2q46 104 174 104q180 0 180 -199v-187h-63v177q0 156 -129 156q-73 0 -118.5 -49t-45.5 -128v-156h-63v461h-52z" />
    <glyph glyph-name="afii10109" unicode="&#x45c;" horiz-adv-x="500" 
d="M274 314l234 -314h-79l-201 271l-105 -97v-174h-63v514h63v-263l286 263h84zM379 734l-126 -141h-51l100 141h77z" />
    <glyph glyph-name="afii10110" unicode="&#x45e;" horiz-adv-x="463" 
d="M460 514l-202 -533q-38 -102 -66 -139t-86 -37q-25 0 -55 5v55q28 -7 45 -7q38 0 57.5 28t44.5 97q5 14 8 21l-207 510h69l139 -354q8 -21 31 -91q26 85 31 98l127 347h64zM96 714h39q5 -38 32 -60t71 -22q43 0 71 21.5t35 60.5h39q-23 -130 -146 -130q-62 0 -97.5 33.5
t-43.5 96.5z" />
    <glyph glyph-name="afii10193" unicode="&#x45f;" horiz-adv-x="537" 
d="M300 0v-164h-63v164h-178v514h63v-461h293v461h63v-514h-178z" />
    <glyph glyph-name="afii10050" unicode="&#x490;" horiz-adv-x="519" 
d="M512 654h-372v-654h-68v712h372v163h68v-221z" />
    <glyph glyph-name="afii10098" unicode="&#x491;" horiz-adv-x="400" 
d="M393 461h-271v-461h-63v514h271v157h63v-210z" />
    <glyph glyph-name="endash" unicode="&#x2013;" horiz-adv-x="500" 
d="M500 305v-61h-500v61h500z" />
    <glyph glyph-name="emdash" unicode="&#x2014;" horiz-adv-x="1000" 
d="M1000 305v-61h-1000v61h1000z" />
    <glyph glyph-name="quoteleft" unicode="&#x2018;" horiz-adv-x="278" 
d="M96 485v110q0 44 24 82t64 50v-43q-45 -26 -45 -95h39v-104h-82z" />
    <glyph glyph-name="quoteright" unicode="&#x2019;" horiz-adv-x="278" 
d="M181 712v-110q0 -44 -24 -82t-64 -50v43q45 26 45 95h-39v104h82z" />
    <glyph glyph-name="quotesinglbase" unicode="&#x201a;" horiz-adv-x="278" 
d="M181 104v-110q0 -44 -24 -82t-64 -50v42q45 29 45 96h-39v104h82z" />
    <glyph glyph-name="quotedblleft" unicode="&#x201c;" horiz-adv-x="370" 
d="M222 487v86q0 118 84 153v-42q-44 -26 -44 -96h38v-101h-78zM69 487v86q0 118 84 153v-42q-44 -26 -44 -96h38v-101h-78z" />
    <glyph glyph-name="quotedblright" unicode="&#x201d;" horiz-adv-x="370" 
d="M146 712v-86q0 -118 -84 -153v42q44 26 44 96h-38v101h78zM299 712v-86q0 -118 -84 -153v42q44 26 44 96h-38v101h78z" />
    <glyph glyph-name="quotedblbase" unicode="&#x201e;" horiz-adv-x="370" 
d="M146 101v-86q0 -118 -84 -153v42q44 26 44 96h-38v101h78zM299 101v-86q0 -118 -84 -153v42q44 26 44 96h-38v101h78z" />
    <glyph glyph-name="dagger" unicode="&#x2020;" 
d="M508 492v-54h-202v-589h-59v589h-199v54h199v220h59v-220h202z" />
    <glyph glyph-name="daggerdbl" unicode="&#x2021;" 
d="M508 514v-54h-202v-359h202v-54h-202v-196h-59v196h-199v54h199v359h-199v54h199v198h59v-198h202z" />
    <glyph glyph-name="bullet" unicode="&#x2022;" horiz-adv-x="500" 
d="M250 534q74 0 126 -52t52 -126t-52 -126t-126 -52t-126 52t-52 126t52 126t126 52z" />
    <glyph glyph-name="ellipsis" unicode="&#x2026;" horiz-adv-x="1000" 
d="M132 0v100h70v-100h-70zM465 0v100h70v-100h-70zM798 0v100h70v-100h-70z" />
    <glyph glyph-name="perthousand" unicode="&#x2030;" horiz-adv-x="1111" 
d="M634 728l-471 -761h-49l473 761h47zM548 327q71 0 110 -43t39 -121q0 -84 -38 -129t-109 -45q-74 0 -112.5 42.5t-38.5 125.5q0 82 38.5 126t110.5 44zM902 328q73 0 111 -45t38 -121q0 -82 -39.5 -127.5t-109.5 -45.5q-73 0 -111.5 43t-38.5 124q0 83 39 127.5t111 44.5
zM212 708q71 0 110 -44t39 -124t-40 -125.5t-111 -45.5t-109.5 44t-38.5 125t39.5 125.5t110.5 44.5zM548 286q-95 0 -95 -132q0 -123 96 -123q94 0 94 129q0 61 -24.5 93.5t-70.5 32.5zM902 286q-47 0 -72 -33.5t-25 -95.5q0 -61 25 -93.5t72 -32.5q94 0 94 129
q0 126 -94 126zM212 666q-46 0 -71 -34t-25 -97q0 -124 95 -124q46 0 71 32.5t25 94.5t-24.5 95t-70.5 33z" />
    <glyph glyph-name="guilsinglleft" unicode="&#x2039;" horiz-adv-x="259" 
d="M186 422v-67l-93 -89l93 -89v-67l-133 125v62z" />
    <glyph glyph-name="guilsinglright" unicode="&#x203a;" horiz-adv-x="259" 
d="M74 423l132 -125v-63l-132 -124v67l93 89l-93 89v67z" />
    <glyph glyph-name="afii61352" unicode="&#x2116;" horiz-adv-x="968" 
d="M933 277q0 -66 -38.5 -105.5t-102.5 -39.5q-65 0 -102 38t-37 107q0 68 37 106.5t100 38.5q66 0 104.5 -39t38.5 -106zM934 0h-280v53h280v-53zM593 0h-76l-376 581h-2v-581h-68v691h76l376 -581h2v581h68v-691zM881 277q0 46 -25 73.5t-63 27.5t-63 -27.5t-25 -73.5
q0 -45 25 -73t61 -28q40 0 65 27.5t25 73.5z" />
    <glyph glyph-name="trademark" unicode="&#x2122;" horiz-adv-x="990" 
d="M244 356v319h-125v37h291v-37h-125v-319h-41zM476 356v356h62l113 -295l113 295h60v-356h-37v315l-120 -315h-35l-119 315v-315h-37z" />
    <glyph glyph-name="Delta" unicode="&#x2206;" horiz-adv-x="667" 
d="M364 712l288 -712h-636l285 712h63zM93 52h479l-240 608z" />
    <glyph glyph-name="radical" unicode="&#x221a;" horiz-adv-x="600" 
d="M508 786l-210 -1000h-55l-168 346l-45 -22l-19 40l88 44l166 -347l194 939h49z" />
    <glyph glyph-name="infinity" unicode="&#x221e;" horiz-adv-x="722" 
d="M362 276q3 3 25.5 24t29.5 27t27.5 22t33.5 21.5t32 11.5t37 6q59 0 97 -39t38 -100q0 -62 -37 -100.5t-95 -38.5q-43 0 -84 23t-104 82q-6 -5 -40.5 -34t-48.5 -38t-43 -21t-58 -12q-58 0 -95 38t-37 98q0 61 37 101t94 40q13 0 27.5 -3.5t25.5 -7t26.5 -13t23.5 -14.5
t25 -19t21.5 -17.5t22.5 -19.5t19 -17zM395 246q28 -25 47 -41t50.5 -31.5t59.5 -15.5q37 0 59.5 24.5t22.5 63.5q0 43 -23 68.5t-62 25.5q-10 0 -21.5 -3t-20.5 -6.5t-21.5 -11.5t-19.5 -13t-20 -15.5t-18 -15t-18 -16t-15 -13.5zM328 246q-1 1 -15.5 13t-18.5 15.5
t-18.5 15t-21.5 16t-20 12.5t-22.5 11.5t-20.5 6.5t-21 3q-35 0 -58.5 -26t-23.5 -66t23.5 -64.5t62.5 -24.5q66 0 154 88z" />
    <glyph glyph-name="approxequal" unicode="&#x2248;" horiz-adv-x="600" 
d="M557 400q-5 -55 -35 -92t-83 -37q-39 0 -136 33q-5 2 -43 15.5t-61.5 19.5t-42.5 6q-31 0 -54 -23t-28 -60h-39q11 60 37.5 95.5t83.5 35.5q40 0 155 -40q4 -2 28 -10.5t35.5 -12.5t30.5 -8t33 -4q65 0 83 82h36zM557 239q-5 -55 -35 -92t-83 -37q-39 0 -136 33
q-5 2 -43 15.5t-61.5 19.5t-42.5 6q-31 0 -54 -23t-28 -60h-39q11 60 37.5 95.5t83.5 35.5q40 0 155 -40q4 -2 28 -10.5t35.5 -12.5t30.5 -8t33 -4q65 0 83 82h36z" />
    <glyph glyph-name="notequal" unicode="&#x2260;" horiz-adv-x="600" 
d="M233 185l71 135h-253v48h280l77 145l42 -22l-66 -123h164v-48h-190l-72 -135h262v-48h-288l-75 -141l-42 23l64 118h-156v48h182z" />
    <glyph glyph-name="lessequal" unicode="&#x2264;" horiz-adv-x="600" 
d="M52 260v54l497 193v-54l-431 -166l431 -166v-53zM52 23h497v-48h-497v48z" />
    <glyph glyph-name="greaterequal" unicode="&#x2265;" horiz-adv-x="600" 
d="M548 260l-497 -192v53l430 166l-430 166v54l497 -193v-54zM548 23v-48h-497v48h497z" />
    <glyph glyph-name="hyphenminus" unicode="&#xe000;" horiz-adv-x="370" 
d="M311 305v-61h-251v61h251z" />
    <glyph glyph-name="nbspace" unicode="&#xe001;" horiz-adv-x="278" 
 />
    </font>
</defs>
</svg>
